<svg width="100" height="22" viewBox="0 0 100 22" fill="none" xmlns="http://www.w3.org/2000/svg">
<path d="M6.896 0.199999C8.448 0.199999 9.736 0.719999 10.76 1.76C11.8 2.784 12.32 4.064 12.32 5.6C12.32 7.12 11.8 8.4 10.76 9.44C9.736 10.48 8.448 11 6.896 11H3.032V17H0.8V0.199999H6.896ZM6.896 8.912C7.824 8.912 8.592 8.6 9.2 7.976C9.808 7.336 10.112 6.544 10.112 5.6C10.112 4.64 9.808 3.848 9.2 3.224C8.592 2.6 7.824 2.288 6.896 2.288H3.032V8.912H6.896ZM23.7622 5H25.8502V17H23.7622V14.936C22.7222 16.52 21.2102 17.312 19.2262 17.312C17.5462 17.312 16.1142 16.704 14.9302 15.488C13.7462 14.256 13.1542 12.76 13.1542 11C13.1542 9.24 13.7462 7.752 14.9302 6.536C16.1142 5.304 17.5462 4.688 19.2262 4.688C21.2102 4.688 22.7222 5.48 23.7622 7.064V5ZM19.4902 15.296C20.7062 15.296 21.7222 14.888 22.5382 14.072C23.3542 13.24 23.7622 12.216 23.7622 11C23.7622 9.784 23.3542 8.768 22.5382 7.952C21.7222 7.12 20.7062 6.704 19.4902 6.704C18.2902 6.704 17.2822 7.12 16.4662 7.952C15.6502 8.768 15.2422 9.784 15.2422 11C15.2422 12.216 15.6502 13.24 16.4662 14.072C17.2822 14.888 18.2902 15.296 19.4902 15.296ZM37.3897 5H39.6217L34.7257 17.744C34.2137 19.104 33.4937 20.136 32.5657 20.84C31.6537 21.56 30.5977 21.88 29.3977 21.8V19.856C30.8697 19.968 31.9497 19.152 32.6377 17.408L32.8537 16.952L27.6217 5H29.8537L33.9337 14.408L37.3897 5Z" fill="white"/>
<path d="M42.7093 8.144C42.7093 8.688 42.9493 9.12 43.4293 9.44C43.9093 9.76 44.4933 10.008 45.1813 10.184C45.8693 10.36 46.5573 10.56 47.2453 10.784C47.9333 10.992 48.5173 11.352 48.9973 11.864C49.4773 12.36 49.7173 13.016 49.7173 13.832C49.7173 14.856 49.3093 15.688 48.4933 16.328C47.6933 16.968 46.6533 17.288 45.3733 17.288C44.2213 17.288 43.2373 17.032 42.4213 16.52C41.6213 16.008 41.0613 15.344 40.7413 14.528L42.0853 13.736C42.3093 14.36 42.7093 14.856 43.2853 15.224C43.8773 15.576 44.5733 15.752 45.3733 15.752C46.1573 15.752 46.8133 15.6 47.3413 15.296C47.8693 14.976 48.1333 14.488 48.1333 13.832C48.1333 13.288 47.8933 12.856 47.4133 12.536C46.9333 12.216 46.3493 11.968 45.6613 11.792C44.9733 11.616 44.2853 11.424 43.5973 11.216C42.9093 10.992 42.3253 10.632 41.8453 10.136C41.3653 9.624 41.1253 8.96 41.1253 8.144C41.1253 7.168 41.5093 6.352 42.2773 5.696C43.0613 5.04 44.0453 4.712 45.2293 4.712C46.2053 4.712 47.0613 4.936 47.7973 5.384C48.5333 5.816 49.0773 6.408 49.4293 7.16L48.1093 7.928C47.6453 6.808 46.6853 6.248 45.2293 6.248C44.5413 6.248 43.9493 6.416 43.4533 6.752C42.9573 7.072 42.7093 7.536 42.7093 8.144ZM57.8585 4.712C59.3145 4.712 60.4585 5.16 61.2905 6.056C62.1385 6.936 62.5625 8.128 62.5625 9.632V17H60.9785V9.632C60.9785 8.56 60.6905 7.728 60.1145 7.136C59.5545 6.544 58.7545 6.248 57.7145 6.248C56.5625 6.248 55.6265 6.616 54.9065 7.352C54.1865 8.072 53.8265 9.192 53.8265 10.712V17H52.2425V0.199999H53.8265V6.872C54.7225 5.432 56.0665 4.712 57.8585 4.712ZM71.1693 4.712C72.9453 4.712 74.3773 5.344 75.4653 6.608C76.5693 7.856 77.1213 9.336 77.1213 11.048C77.1213 11.224 77.1053 11.472 77.0733 11.792H66.5373C66.6973 13.008 67.2093 13.976 68.0733 14.696C68.9533 15.4 70.0333 15.752 71.3133 15.752C72.2253 15.752 73.0093 15.568 73.6653 15.2C74.3373 14.816 74.8413 14.32 75.1773 13.712L76.5693 14.528C76.0413 15.376 75.3213 16.048 74.4093 16.544C73.4973 17.04 72.4573 17.288 71.2893 17.288C69.4013 17.288 67.8653 16.696 66.6813 15.512C65.4973 14.328 64.9053 12.824 64.9053 11C64.9053 9.208 65.4893 7.712 66.6573 6.512C67.8253 5.312 69.3293 4.712 71.1693 4.712ZM71.1693 6.248C69.9213 6.248 68.8733 6.624 68.0253 7.376C67.1933 8.112 66.6973 9.072 66.5373 10.256H75.4893C75.3293 8.992 74.8413 8.008 74.0253 7.304C73.2093 6.6 72.2573 6.248 71.1693 6.248ZM85.1849 4.712C86.9609 4.712 88.3929 5.344 89.4809 6.608C90.5849 7.856 91.1369 9.336 91.1369 11.048C91.1369 11.224 91.1209 11.472 91.0889 11.792H80.5529C80.7129 13.008 81.2249 13.976 82.0889 14.696C82.9689 15.4 84.0489 15.752 85.3289 15.752C86.2409 15.752 87.0249 15.568 87.6809 15.2C88.3529 14.816 88.8569 14.32 89.1929 13.712L90.5849 14.528C90.0569 15.376 89.3369 16.048 88.4249 16.544C87.5129 17.04 86.4729 17.288 85.3049 17.288C83.4169 17.288 81.8809 16.696 80.6969 15.512C79.5129 14.328 78.9209 12.824 78.9209 11C78.9209 9.208 79.5049 7.712 80.6729 6.512C81.8409 5.312 83.3449 4.712 85.1849 4.712ZM85.1849 6.248C83.9369 6.248 82.8889 6.624 82.0409 7.376C81.2089 8.112 80.7129 9.072 80.5529 10.256H89.5049C89.3449 8.992 88.8569 8.008 88.0409 7.304C87.2249 6.6 86.2729 6.248 85.1849 6.248ZM99.665 6.536H96.209V13.808C96.209 14.464 96.337 14.936 96.593 15.224C96.849 15.496 97.233 15.64 97.745 15.656C98.257 15.656 98.897 15.64 99.665 15.608V17C97.985 17.256 96.721 17.136 95.873 16.64C95.041 16.144 94.625 15.2 94.625 13.808V6.536H92.105V5H94.625V2.12L96.209 1.64V5H99.665V6.536Z" fill="#6F767D"/>
</svg>
